<svg width="41" height="41" viewBox="0 0 41 41" fill="none" xmlns="http://www.w3.org/2000/svg">
<rect x="8.33365" y="8.40186" width="24.3327" height="24.3327" rx="12.1663" fill="#FFC4C4" stroke="#FFC4C4" stroke-width="4"/>
<path fill-rule="evenodd" clip-rule="evenodd" d="M17.0645 12.3337C17.9443 12.2932 18.2248 12.2842 20.4658 12.2842C22.7068 12.2842 22.9873 12.2939 23.8663 12.3337C24.7453 12.3734 25.3453 12.5137 25.8703 12.7169C26.42 12.9247 26.9188 13.2494 27.3313 13.6694C27.7513 14.0812 28.0753 14.5792 28.2823 15.1297C28.4863 15.6547 28.6258 16.2547 28.6663 17.1322C28.7068 18.0134 28.7158 18.2939 28.7158 20.5342C28.7158 22.7752 28.706 23.0557 28.6663 23.9354C28.6265 24.8129 28.4863 25.4129 28.2823 25.9379C28.0753 26.4885 27.7507 26.9873 27.3313 27.3997C26.9188 27.8197 26.42 28.1437 25.8703 28.3507C25.3453 28.5547 24.7453 28.6942 23.8678 28.7347C22.9873 28.7752 22.7068 28.7842 20.4658 28.7842C18.2248 28.7842 17.9443 28.7744 17.0645 28.7347C16.187 28.6949 15.587 28.5547 15.062 28.3507C14.5114 28.1437 14.0126 27.8191 13.6003 27.3997C13.1805 26.9877 12.8557 26.4891 12.6485 25.9387C12.4453 25.4137 12.3058 24.8137 12.2653 23.9362C12.2248 23.0549 12.2158 22.7744 12.2158 20.5342C12.2158 18.2932 12.2255 18.0127 12.2653 17.1337C12.305 16.2547 12.4453 15.6547 12.6485 15.1297C12.8561 14.5792 13.1811 14.0807 13.601 13.6687C14.0128 13.2491 14.5111 12.9243 15.0613 12.7169C15.5863 12.5137 16.1863 12.3742 17.0638 12.3337H17.0645ZM23.7995 13.8187C22.9295 13.7789 22.6685 13.7707 20.4658 13.7707C18.263 13.7707 18.002 13.7789 17.132 13.8187C16.3273 13.8554 15.8908 13.9897 15.5998 14.1029C15.215 14.2529 14.9398 14.4307 14.651 14.7194C14.3773 14.9857 14.1666 15.3099 14.0345 15.6682C13.9213 15.9592 13.787 16.3957 13.7503 17.2004C13.7105 18.0704 13.7023 18.3314 13.7023 20.5342C13.7023 22.7369 13.7105 22.9979 13.7503 23.8679C13.787 24.6727 13.9213 25.1092 14.0345 25.4002C14.1665 25.7579 14.3773 26.0827 14.651 26.3489C14.9173 26.6227 15.242 26.8334 15.5998 26.9654C15.8908 27.0787 16.3273 27.2129 17.132 27.2497C18.002 27.2894 18.2623 27.2977 20.4658 27.2977C22.6693 27.2977 22.9295 27.2894 23.7995 27.2497C24.6043 27.2129 25.0408 27.0787 25.3318 26.9654C25.7165 26.8154 25.9918 26.6377 26.2805 26.3489C26.5543 26.0827 26.765 25.7579 26.897 25.4002C27.0103 25.1092 27.1445 24.6727 27.1813 23.8679C27.221 22.9979 27.2293 22.7369 27.2293 20.5342C27.2293 18.3314 27.221 18.0704 27.1813 17.2004C27.1445 16.3957 27.0103 15.9592 26.897 15.6682C26.747 15.2834 26.5693 15.0082 26.2805 14.7194C26.0142 14.4457 25.69 14.2351 25.3318 14.1029C25.0408 13.9897 24.6043 13.8554 23.7995 13.8187ZM19.412 23.0774C20.0005 23.3224 20.6558 23.3555 21.266 23.171C21.8761 22.9865 22.4033 22.5959 22.7575 22.0659C23.1116 21.5359 23.2708 20.8993 23.2078 20.265C23.1448 19.6307 22.8635 19.0379 22.412 18.5879C22.1242 18.3003 21.7762 18.08 21.393 17.943C21.0098 17.806 20.6011 17.7557 20.1961 17.7956C19.7912 17.8356 19.4001 17.9648 19.0511 18.174C18.7021 18.3832 18.4038 18.6672 18.1777 19.0056C17.9517 19.3439 17.8034 19.7281 17.7436 20.1307C17.6839 20.5332 17.7141 20.9439 17.8322 21.3333C17.9502 21.7227 18.1531 22.0811 18.4263 22.3827C18.6995 22.6843 19.0361 22.9216 19.412 23.0774ZM17.4673 17.5357C17.861 17.1419 18.3285 16.8296 18.843 16.6165C19.3575 16.4033 19.9089 16.2937 20.4658 16.2937C21.0226 16.2937 21.5741 16.4033 22.0885 16.6165C22.603 16.8296 23.0705 17.1419 23.4643 17.5357C23.858 17.9294 24.1704 18.3969 24.3835 18.9114C24.5966 19.4259 24.7063 19.9773 24.7063 20.5342C24.7063 21.0911 24.5966 21.6425 24.3835 22.157C24.1704 22.6714 23.858 23.1389 23.4643 23.5327C22.669 24.3279 21.5904 24.7747 20.4658 24.7747C19.3411 24.7747 18.2625 24.3279 17.4673 23.5327C16.672 22.7374 16.2252 21.6588 16.2252 20.5342C16.2252 19.4095 16.672 18.3309 17.4673 17.5357ZM25.6468 16.9252C25.7443 16.8331 25.8225 16.7224 25.8765 16.5997C25.9305 16.4769 25.9594 16.3445 25.9613 16.2104C25.9633 16.0762 25.9383 15.9431 25.8879 15.8188C25.8374 15.6945 25.7626 15.5816 25.6677 15.4867C25.5729 15.3919 25.46 15.317 25.3357 15.2666C25.2113 15.2161 25.0782 15.1912 24.9441 15.1931C24.8099 15.1951 24.6776 15.2239 24.5548 15.278C24.432 15.332 24.3213 15.4101 24.2293 15.5077C24.0502 15.6975 23.9522 15.9495 23.956 16.2104C23.9598 16.4712 24.0652 16.7203 24.2496 16.9048C24.4341 17.0893 24.6832 17.1946 24.9441 17.1984C25.2049 17.2022 25.457 17.1042 25.6468 16.9252Z" fill="#DB2723"/>
</svg>
