<svg width="41" height="41" viewBox="0 0 41 41" fill="none" xmlns="http://www.w3.org/2000/svg">
<rect x="8.33365" y="8.3335" width="24.3327" height="24.3327" rx="12.1663" fill="#FFC4C4" stroke="#FFC4C4" stroke-width="4"/>
<g clip-path="url(#clip0)">
<path fill-rule="evenodd" clip-rule="evenodd" d="M15.8794 13.8813C16.0106 13.7394 16.1682 13.6292 16.3417 13.5583C16.5152 13.4873 16.7006 13.457 16.8857 13.4696C17.0708 13.4821 17.2513 13.5371 17.4153 13.6309C17.5793 13.7247 17.723 13.8552 17.8369 14.0137L19.1832 15.8874C19.4299 16.2311 19.5169 16.6787 19.4194 17.1012L19.0092 18.8806C18.9879 18.9728 18.9891 19.0693 19.0125 19.1609C19.0359 19.2524 19.0807 19.3358 19.1427 19.4031L20.9854 21.3994C21.0475 21.4666 21.1247 21.5153 21.2093 21.5406C21.294 21.566 21.3832 21.5671 21.4684 21.544L23.1102 21.0996C23.3026 21.0474 23.5035 21.0434 23.6976 21.0877C23.8917 21.1321 24.074 21.2236 24.2307 21.3555L25.9602 22.8131C26.5819 23.3372 26.6389 24.3325 26.0824 24.9346L25.3069 25.7747C24.7519 26.3759 23.9224 26.64 23.1492 26.3451C21.17 25.5907 19.3731 24.3632 17.8917 22.7538C16.4061 21.1491 15.2731 19.2027 14.5767 17.059C14.3052 16.2221 14.5489 15.3227 15.1039 14.7214L15.8794 13.8813Z" fill="#DB2723"/>
</g>
<defs>
<clipPath id="clip0">
<rect width="12" height="13" fill="white" transform="translate(14.4658 13.4658)"/>
</clipPath>
</defs>
</svg>
