<svg width="41" height="41" viewBox="0 0 41 41" fill="none" xmlns="http://www.w3.org/2000/svg">
<rect x="8.33365" y="8.26514" width="24.3327" height="24.3327" rx="12.1663" fill="#FFC4C4" stroke="#FFC4C4" stroke-width="4"/>
<g clip-path="url(#clip0)">
<path d="M19.9658 13.3975C16.843 13.3975 14.3115 15.7602 14.3115 18.6748C14.3115 19.6495 14.5159 20.6562 15.1025 21.3818L19.9658 27.3975L24.829 21.3818C25.3619 20.7228 25.6201 19.5577 25.6201 18.6748C25.6201 15.7602 23.0885 13.3975 19.9658 13.3975ZM19.9658 16.454C21.2797 16.454 22.3452 17.4485 22.3452 18.6748C22.3452 19.9012 21.2797 20.8956 19.9658 20.8956C18.6518 20.8956 17.5863 19.9012 17.5863 18.6748C17.5863 17.4485 18.6518 16.454 19.9658 16.454Z" fill="#DB2723"/>
</g>
<defs>
<clipPath id="clip0">
<rect width="15" height="14" fill="white" transform="translate(12.4658 13.3975)"/>
</clipPath>
</defs>
</svg>
